<svg version="1.1" xmlns="http://www.w3.org/2000/svg" xmlns:xlink="http://www.w3.org/1999/xlink" width="400" height="400" viewBox="0 0 400 400"><defs/><g><path fill="none" stroke="rgb(0,0,0)" paint-order="fill stroke markers" d=" M 0 0 L 66.66666666666667 0 L 66.66666666666667 66.66666666666667 L 0 66.66666666666667 L 0 0 Z" stroke-opacity="1" stroke-linecap="round" stroke-miterlimit="10" stroke-dasharray=""/><path fill="rgb(0,0,0)" stroke="rgb(0,0,0)" paint-order="fill stroke markers" d=" M 0 0 L 66.66666666666667 0 L 66.66666666666667 66.66666666666667 L 0 66.66666666666667 L 0 0 Z" fill-opacity="1" stroke-opacity="1" stroke-linecap="round" stroke-miterlimit="10" stroke-dasharray=""/><path fill="none" stroke="rgb(0,0,0)" paint-order="fill stroke markers" d=" M 66.66666666666667 0 L 133.33333333333334 0 L 133.33333333333334 66.66666666666667 L 66.66666666666667 66.66666666666667 L 66.66666666666667 0 Z" stroke-opacity="1" stroke-linecap="round" stroke-miterlimit="10" stroke-dasharray=""/><path fill="none" stroke="rgb(0,0,0)" paint-order="fill stroke markers" d=" M 133.33333333333334 0 L 200 0 L 200 66.66666666666667 L 133.33333333333334 66.66666666666667 L 133.33333333333334 0 Z" stroke-opacity="1" stroke-linecap="round" stroke-miterlimit="10" stroke-dasharray=""/><path fill="none" stroke="rgb(0,0,0)" paint-order="fill stroke markers" d=" M 200 0 L 266.6666666666667 0 L 266.6666666666667 66.66666666666667 L 200 66.66666666666667 L 200 0 Z" stroke-opacity="1" stroke-linecap="round" stroke-miterlimit="10" stroke-dasharray=""/><path fill="none" stroke="rgb(0,0,0)" paint-order="fill stroke markers" d=" M 266.6666666666667 0 L 333.33333333333337 0 L 333.33333333333337 66.66666666666667 L 266.6666666666667 66.66666666666667 L 266.6666666666667 0 Z" stroke-opacity="1" stroke-linecap="round" stroke-miterlimit="10" stroke-dasharray=""/><path fill="none" stroke="rgb(0,0,0)" paint-order="fill stroke markers" d=" M 333.33333333333337 0 L 400.00000000000006 0 L 400.00000000000006 66.66666666666667 L 333.33333333333337 66.66666666666667 L 333.33333333333337 0 Z" stroke-opacity="1" stroke-linecap="round" stroke-miterlimit="10" stroke-dasharray=""/><path fill="rgb(0,0,0)" stroke="rgb(0,0,0)" paint-order="fill stroke markers" d=" M 333.33333333333337 0 L 400.00000000000006 0 L 400.00000000000006 66.66666666666667 L 333.33333333333337 66.66666666666667 L 333.33333333333337 0 Z" fill-opacity="1" stroke-opacity="1" stroke-linecap="round" stroke-miterlimit="10" stroke-dasharray=""/><path fill="none" stroke="rgb(0,0,0)" paint-order="fill stroke markers" d=" M 0 66.66666666666667 L 66.66666666666667 66.66666666666667 L 66.66666666666667 133.33333333333334 L 0 133.33333333333334 L 0 66.66666666666667 Z" stroke-opacity="1" stroke-linecap="round" stroke-miterlimit="10" stroke-dasharray=""/><path fill="rgb(0,0,0)" stroke="rgb(0,0,0)" paint-order="fill stroke markers" d=" M 0 66.66666666666667 L 66.66666666666667 66.66666666666667 L 66.66666666666667 133.33333333333334 L 0 133.33333333333334 L 0 66.66666666666667 Z" fill-opacity="1" stroke-opacity="1" stroke-linecap="round" stroke-miterlimit="10" stroke-dasharray=""/><path fill="none" stroke="rgb(0,0,0)" paint-order="fill stroke markers" d=" M 66.66666666666667 66.66666666666667 L 133.33333333333334 66.66666666666667 L 133.33333333333334 133.33333333333334 L 66.66666666666667 133.33333333333334 L 66.66666666666667 66.66666666666667 Z" stroke-opacity="1" stroke-linecap="round" stroke-miterlimit="10" stroke-dasharray=""/><path fill="rgb(0,0,0)" stroke="rgb(0,0,0)" paint-order="fill stroke markers" d=" M 66.66666666666667 66.66666666666667 L 133.33333333333334 66.66666666666667 L 133.33333333333334 133.33333333333334 L 66.66666666666667 133.33333333333334 L 66.66666666666667 66.66666666666667 Z" fill-opacity="1" stroke-opacity="1" stroke-linecap="round" stroke-miterlimit="10" stroke-dasharray=""/><path fill="none" stroke="rgb(0,0,0)" paint-order="fill stroke markers" d=" M 133.33333333333334 66.66666666666667 L 200 66.66666666666667 L 200 133.33333333333334 L 133.33333333333334 133.33333333333334 L 133.33333333333334 66.66666666666667 Z" stroke-opacity="1" stroke-linecap="round" stroke-miterlimit="10" stroke-dasharray=""/><path fill="none" stroke="rgb(0,0,0)" paint-order="fill stroke markers" d=" M 200 66.66666666666667 L 266.6666666666667 66.66666666666667 L 266.6666666666667 133.33333333333334 L 200 133.33333333333334 L 200 66.66666666666667 Z" stroke-opacity="1" stroke-linecap="round" stroke-miterlimit="10" stroke-dasharray=""/><path fill="none" stroke="rgb(0,0,0)" paint-order="fill stroke markers" d=" M 266.6666666666667 66.66666666666667 L 333.33333333333337 66.66666666666667 L 333.33333333333337 133.33333333333334 L 266.6666666666667 133.33333333333334 L 266.6666666666667 66.66666666666667 Z" stroke-opacity="1" stroke-linecap="round" stroke-miterlimit="10" stroke-dasharray=""/><path fill="rgb(0,0,0)" stroke="rgb(0,0,0)" paint-order="fill stroke markers" d=" M 266.6666666666667 66.66666666666667 L 333.33333333333337 66.66666666666667 L 333.33333333333337 133.33333333333334 L 266.6666666666667 133.33333333333334 L 266.6666666666667 66.66666666666667 Z" fill-opacity="1" stroke-opacity="1" stroke-linecap="round" stroke-miterlimit="10" stroke-dasharray=""/><path fill="none" stroke="rgb(0,0,0)" paint-order="fill stroke markers" d=" M 333.33333333333337 66.66666666666667 L 400.00000000000006 66.66666666666667 L 400.00000000000006 133.33333333333334 L 333.33333333333337 133.33333333333334 L 333.33333333333337 66.66666666666667 Z" stroke-opacity="1" stroke-linecap="round" stroke-miterlimit="10" stroke-dasharray=""/><path fill="none" stroke="rgb(0,0,0)" paint-order="fill stroke markers" d=" M 0 133.33333333333334 L 66.66666666666667 133.33333333333334 L 66.66666666666667 200 L 0 200 L 0 133.33333333333334 Z" stroke-opacity="1" stroke-linecap="round" stroke-miterlimit="10" stroke-dasharray=""/><path fill="rgb(0,0,0)" stroke="rgb(0,0,0)" paint-order="fill stroke markers" d=" M 0 133.33333333333334 L 66.66666666666667 133.33333333333334 L 66.66666666666667 200 L 0 200 L 0 133.33333333333334 Z" fill-opacity="1" stroke-opacity="1" stroke-linecap="round" stroke-miterlimit="10" stroke-dasharray=""/><path fill="none" stroke="rgb(0,0,0)" paint-order="fill stroke markers" d=" M 66.66666666666667 133.33333333333334 L 133.33333333333334 133.33333333333334 L 133.33333333333334 200 L 66.66666666666667 200 L 66.66666666666667 133.33333333333334 Z" stroke-opacity="1" stroke-linecap="round" stroke-miterlimit="10" stroke-dasharray=""/><path fill="none" stroke="rgb(0,0,0)" paint-order="fill stroke markers" d=" M 133.33333333333334 133.33333333333334 L 200 133.33333333333334 L 200 200 L 133.33333333333334 200 L 133.33333333333334 133.33333333333334 Z" stroke-opacity="1" stroke-linecap="round" stroke-miterlimit="10" stroke-dasharray=""/><path fill="rgb(0,0,0)" stroke="rgb(0,0,0)" paint-order="fill stroke markers" d=" M 133.33333333333334 133.33333333333334 L 200 133.33333333333334 L 200 200 L 133.33333333333334 200 L 133.33333333333334 133.33333333333334 Z" fill-opacity="1" stroke-opacity="1" stroke-linecap="round" stroke-miterlimit="10" stroke-dasharray=""/><path fill="none" stroke="rgb(0,0,0)" paint-order="fill stroke markers" d=" M 200 133.33333333333334 L 266.6666666666667 133.33333333333334 L 266.6666666666667 200 L 200 200 L 200 133.33333333333334 Z" stroke-opacity="1" stroke-linecap="round" stroke-miterlimit="10" stroke-dasharray=""/><path fill="none" stroke="rgb(0,0,0)" paint-order="fill stroke markers" d=" M 266.6666666666667 133.33333333333334 L 333.33333333333337 133.33333333333334 L 333.33333333333337 200 L 266.6666666666667 200 L 266.6666666666667 133.33333333333334 Z" stroke-opacity="1" stroke-linecap="round" stroke-miterlimit="10" stroke-dasharray=""/><path fill="rgb(0,0,0)" stroke="rgb(0,0,0)" paint-order="fill stroke markers" d=" M 266.6666666666667 133.33333333333334 L 333.33333333333337 133.33333333333334 L 333.33333333333337 200 L 266.6666666666667 200 L 266.6666666666667 133.33333333333334 Z" fill-opacity="1" stroke-opacity="1" stroke-linecap="round" stroke-miterlimit="10" stroke-dasharray=""/><path fill="none" stroke="rgb(0,0,0)" paint-order="fill stroke markers" d=" M 333.33333333333337 133.33333333333334 L 400.00000000000006 133.33333333333334 L 400.00000000000006 200 L 333.33333333333337 200 L 333.33333333333337 133.33333333333334 Z" stroke-opacity="1" stroke-linecap="round" stroke-miterlimit="10" stroke-dasharray=""/><path fill="rgb(0,0,0)" stroke="rgb(0,0,0)" paint-order="fill stroke markers" d=" M 333.33333333333337 133.33333333333334 L 400.00000000000006 133.33333333333334 L 400.00000000000006 200 L 333.33333333333337 200 L 333.33333333333337 133.33333333333334 Z" fill-opacity="1" stroke-opacity="1" stroke-linecap="round" stroke-miterlimit="10" stroke-dasharray=""/><path fill="none" stroke="rgb(0,0,0)" paint-order="fill stroke markers" d=" M 0 200 L 66.66666666666667 200 L 66.66666666666667 266.6666666666667 L 0 266.6666666666667 L 0 200 Z" stroke-opacity="1" stroke-linecap="round" stroke-miterlimit="10" stroke-dasharray=""/><path fill="rgb(0,0,0)" stroke="rgb(0,0,0)" paint-order="fill stroke markers" d=" M 0 200 L 66.66666666666667 200 L 66.66666666666667 266.6666666666667 L 0 266.6666666666667 L 0 200 Z" fill-opacity="1" stroke-opacity="1" stroke-linecap="round" stroke-miterlimit="10" stroke-dasharray=""/><path fill="none" stroke="rgb(0,0,0)" paint-order="fill stroke markers" d=" M 66.66666666666667 200 L 133.33333333333334 200 L 133.33333333333334 266.6666666666667 L 66.66666666666667 266.6666666666667 L 66.66666666666667 200 Z" stroke-opacity="1" stroke-linecap="round" stroke-miterlimit="10" stroke-dasharray=""/><path fill="none" stroke="rgb(0,0,0)" paint-order="fill stroke markers" d=" M 133.33333333333334 200 L 200 200 L 200 266.6666666666667 L 133.33333333333334 266.6666666666667 L 133.33333333333334 200 Z" stroke-opacity="1" stroke-linecap="round" stroke-miterlimit="10" stroke-dasharray=""/><path fill="none" stroke="rgb(0,0,0)" paint-order="fill stroke markers" d=" M 200 200 L 266.6666666666667 200 L 266.6666666666667 266.6666666666667 L 200 266.6666666666667 L 200 200 Z" stroke-opacity="1" stroke-linecap="round" stroke-miterlimit="10" stroke-dasharray=""/><path fill="rgb(0,0,0)" stroke="rgb(0,0,0)" paint-order="fill stroke markers" d=" M 200 200 L 266.6666666666667 200 L 266.6666666666667 266.6666666666667 L 200 266.6666666666667 L 200 200 Z" fill-opacity="1" stroke-opacity="1" stroke-linecap="round" stroke-miterlimit="10" stroke-dasharray=""/><path fill="none" stroke="rgb(0,0,0)" paint-order="fill stroke markers" d=" M 266.6666666666667 200 L 333.33333333333337 200 L 333.33333333333337 266.6666666666667 L 266.6666666666667 266.6666666666667 L 266.6666666666667 200 Z" stroke-opacity="1" stroke-linecap="round" stroke-miterlimit="10" stroke-dasharray=""/><path fill="none" stroke="rgb(0,0,0)" paint-order="fill stroke markers" d=" M 333.33333333333337 200 L 400.00000000000006 200 L 400.00000000000006 266.6666666666667 L 333.33333333333337 266.6666666666667 L 333.33333333333337 200 Z" stroke-opacity="1" stroke-linecap="round" stroke-miterlimit="10" stroke-dasharray=""/><path fill="rgb(0,0,0)" stroke="rgb(0,0,0)" paint-order="fill stroke markers" d=" M 333.33333333333337 200 L 400.00000000000006 200 L 400.00000000000006 266.6666666666667 L 333.33333333333337 266.6666666666667 L 333.33333333333337 200 Z" fill-opacity="1" stroke-opacity="1" stroke-linecap="round" stroke-miterlimit="10" stroke-dasharray=""/><path fill="none" stroke="rgb(0,0,0)" paint-order="fill stroke markers" d=" M 0 266.6666666666667 L 66.66666666666667 266.6666666666667 L 66.66666666666667 333.33333333333337 L 0 333.33333333333337 L 0 266.6666666666667 Z" stroke-opacity="1" stroke-linecap="round" stroke-miterlimit="10" stroke-dasharray=""/><path fill="rgb(0,0,0)" stroke="rgb(0,0,0)" paint-order="fill stroke markers" d=" M 0 266.6666666666667 L 66.66666666666667 266.6666666666667 L 66.66666666666667 333.33333333333337 L 0 333.33333333333337 L 0 266.6666666666667 Z" fill-opacity="1" stroke-opacity="1" stroke-linecap="round" stroke-miterlimit="10" stroke-dasharray=""/><path fill="none" stroke="rgb(0,0,0)" paint-order="fill stroke markers" d=" M 66.66666666666667 266.6666666666667 L 133.33333333333334 266.6666666666667 L 133.33333333333334 333.33333333333337 L 66.66666666666667 333.33333333333337 L 66.66666666666667 266.6666666666667 Z" stroke-opacity="1" stroke-linecap="round" stroke-miterlimit="10" stroke-dasharray=""/><path fill="none" stroke="rgb(0,0,0)" paint-order="fill stroke markers" d=" M 133.33333333333334 266.6666666666667 L 200 266.6666666666667 L 200 333.33333333333337 L 133.33333333333334 333.33333333333337 L 133.33333333333334 266.6666666666667 Z" stroke-opacity="1" stroke-linecap="round" stroke-miterlimit="10" stroke-dasharray=""/><path fill="none" stroke="rgb(0,0,0)" paint-order="fill stroke markers" d=" M 200 266.6666666666667 L 266.6666666666667 266.6666666666667 L 266.6666666666667 333.33333333333337 L 200 333.33333333333337 L 200 266.6666666666667 Z" stroke-opacity="1" stroke-linecap="round" stroke-miterlimit="10" stroke-dasharray=""/><path fill="none" stroke="rgb(0,0,0)" paint-order="fill stroke markers" d=" M 266.6666666666667 266.6666666666667 L 333.33333333333337 266.6666666666667 L 333.33333333333337 333.33333333333337 L 266.6666666666667 333.33333333333337 L 266.6666666666667 266.6666666666667 Z" stroke-opacity="1" stroke-linecap="round" stroke-miterlimit="10" stroke-dasharray=""/><path fill="none" stroke="rgb(0,0,0)" paint-order="fill stroke markers" d=" M 333.33333333333337 266.6666666666667 L 400.00000000000006 266.6666666666667 L 400.00000000000006 333.33333333333337 L 333.33333333333337 333.33333333333337 L 333.33333333333337 266.6666666666667 Z" stroke-opacity="1" stroke-linecap="round" stroke-miterlimit="10" stroke-dasharray=""/><path fill="rgb(0,0,0)" stroke="rgb(0,0,0)" paint-order="fill stroke markers" d=" M 333.33333333333337 266.6666666666667 L 400.00000000000006 266.6666666666667 L 400.00000000000006 333.33333333333337 L 333.33333333333337 333.33333333333337 L 333.33333333333337 266.6666666666667 Z" fill-opacity="1" stroke-opacity="1" stroke-linecap="round" stroke-miterlimit="10" stroke-dasharray=""/><path fill="none" stroke="rgb(0,0,0)" paint-order="fill stroke markers" d=" M 0 333.33333333333337 L 66.66666666666667 333.33333333333337 L 66.66666666666667 400.00000000000006 L 0 400.00000000000006 L 0 333.33333333333337 Z" stroke-opacity="1" stroke-linecap="round" stroke-miterlimit="10" stroke-dasharray=""/><path fill="rgb(0,0,0)" stroke="rgb(0,0,0)" paint-order="fill stroke markers" d=" M 0 333.33333333333337 L 66.66666666666667 333.33333333333337 L 66.66666666666667 400.00000000000006 L 0 400.00000000000006 L 0 333.33333333333337 Z" fill-opacity="1" stroke-opacity="1" stroke-linecap="round" stroke-miterlimit="10" stroke-dasharray=""/><path fill="none" stroke="rgb(0,0,0)" paint-order="fill stroke markers" d=" M 66.66666666666667 333.33333333333337 L 133.33333333333334 333.33333333333337 L 133.33333333333334 400.00000000000006 L 66.66666666666667 400.00000000000006 L 66.66666666666667 333.33333333333337 Z" stroke-opacity="1" stroke-linecap="round" stroke-miterlimit="10" stroke-dasharray=""/><path fill="none" stroke="rgb(0,0,0)" paint-order="fill stroke markers" d=" M 133.33333333333334 333.33333333333337 L 200 333.33333333333337 L 200 400.00000000000006 L 133.33333333333334 400.00000000000006 L 133.33333333333334 333.33333333333337 Z" stroke-opacity="1" stroke-linecap="round" stroke-miterlimit="10" stroke-dasharray=""/><path fill="none" stroke="rgb(0,0,0)" paint-order="fill stroke markers" d=" M 200 333.33333333333337 L 266.6666666666667 333.33333333333337 L 266.6666666666667 400.00000000000006 L 200 400.00000000000006 L 200 333.33333333333337 Z" stroke-opacity="1" stroke-linecap="round" stroke-miterlimit="10" stroke-dasharray=""/><path fill="none" stroke="rgb(0,0,0)" paint-order="fill stroke markers" d=" M 266.6666666666667 333.33333333333337 L 333.33333333333337 333.33333333333337 L 333.33333333333337 400.00000000000006 L 266.6666666666667 400.00000000000006 L 266.6666666666667 333.33333333333337 Z" stroke-opacity="1" stroke-linecap="round" stroke-miterlimit="10" stroke-dasharray=""/><path fill="none" stroke="rgb(0,0,0)" paint-order="fill stroke markers" d=" M 333.33333333333337 333.33333333333337 L 400.00000000000006 333.33333333333337 L 400.00000000000006 400.00000000000006 L 333.33333333333337 400.00000000000006 L 333.33333333333337 333.33333333333337 Z" stroke-opacity="1" stroke-linecap="round" stroke-miterlimit="10" stroke-dasharray=""/><path fill="rgb(0,0,0)" stroke="rgb(0,0,0)" paint-order="fill stroke markers" d=" M 333.33333333333337 333.33333333333337 L 400.00000000000006 333.33333333333337 L 400.00000000000006 400.00000000000006 L 333.33333333333337 400.00000000000006 L 333.33333333333337 333.33333333333337 Z" fill-opacity="1" stroke-opacity="1" stroke-linecap="round" stroke-miterlimit="10" stroke-dasharray=""/><path fill="none" stroke="rgb(0,0,0)" paint-order="fill stroke markers" d=" M 0 400 L 66.66666666666667 400 L 66.66666666666667 466.6666666666667 L 0 466.6666666666667 L 0 400 Z" stroke-opacity="1" stroke-linecap="round" stroke-miterlimit="10" stroke-dasharray=""/><path fill="none" stroke="rgb(0,0,0)" paint-order="fill stroke markers" d=" M 66.66666666666667 400 L 133.33333333333334 400 L 133.33333333333334 466.6666666666667 L 66.66666666666667 466.6666666666667 L 66.66666666666667 400 Z" stroke-opacity="1" stroke-linecap="round" stroke-miterlimit="10" stroke-dasharray=""/><path fill="none" stroke="rgb(0,0,0)" paint-order="fill stroke markers" d=" M 133.33333333333334 400 L 200 400 L 200 466.6666666666667 L 133.33333333333334 466.6666666666667 L 133.33333333333334 400 Z" stroke-opacity="1" stroke-linecap="round" stroke-miterlimit="10" stroke-dasharray=""/><path fill="none" stroke="rgb(0,0,0)" paint-order="fill stroke markers" d=" M 200 400 L 266.6666666666667 400 L 266.6666666666667 466.6666666666667 L 200 466.6666666666667 L 200 400 Z" stroke-opacity="1" stroke-linecap="round" stroke-miterlimit="10" stroke-dasharray=""/><path fill="none" stroke="rgb(0,0,0)" paint-order="fill stroke markers" d=" M 266.6666666666667 400 L 333.33333333333337 400 L 333.33333333333337 466.6666666666667 L 266.6666666666667 466.6666666666667 L 266.6666666666667 400 Z" stroke-opacity="1" stroke-linecap="round" stroke-miterlimit="10" stroke-dasharray=""/><path fill="rgb(0,0,0)" stroke="rgb(0,0,0)" paint-order="fill stroke markers" d=" M 266.6666666666667 400 L 333.33333333333337 400 L 333.33333333333337 466.6666666666667 L 266.6666666666667 466.6666666666667 L 266.6666666666667 400 Z" fill-opacity="1" stroke-opacity="1" stroke-linecap="round" stroke-miterlimit="10" stroke-dasharray=""/><path fill="none" stroke="rgb(0,0,0)" paint-order="fill stroke markers" d=" M 333.33333333333337 400 L 400.00000000000006 400 L 400.00000000000006 466.6666666666667 L 333.33333333333337 466.6666666666667 L 333.33333333333337 400 Z" stroke-opacity="1" stroke-linecap="round" stroke-miterlimit="10" stroke-dasharray=""/><path fill="rgb(0,0,0)" stroke="rgb(0,0,0)" paint-order="fill stroke markers" d=" M 333.33333333333337 400 L 400.00000000000006 400 L 400.00000000000006 466.6666666666667 L 333.33333333333337 466.6666666666667 L 333.33333333333337 400 Z" fill-opacity="1" stroke-opacity="1" stroke-linecap="round" stroke-miterlimit="10" stroke-dasharray=""/><path fill="none" stroke="rgb(0,0,0)" paint-order="fill stroke markers" d=" M 0 466.6666666666667 L 66.66666666666667 466.6666666666667 L 66.66666666666667 533.3333333333334 L 0 533.3333333333334 L 0 466.6666666666667 Z" stroke-opacity="1" stroke-linecap="round" stroke-miterlimit="10" stroke-dasharray=""/><path fill="none" stroke="rgb(0,0,0)" paint-order="fill stroke markers" d=" M 66.66666666666667 466.6666666666667 L 133.33333333333334 466.6666666666667 L 133.33333333333334 533.3333333333334 L 66.66666666666667 533.3333333333334 L 66.66666666666667 466.6666666666667 Z" stroke-opacity="1" stroke-linecap="round" stroke-miterlimit="10" stroke-dasharray=""/><path fill="none" stroke="rgb(0,0,0)" paint-order="fill stroke markers" d=" M 133.33333333333334 466.6666666666667 L 200 466.6666666666667 L 200 533.3333333333334 L 133.33333333333334 533.3333333333334 L 133.33333333333334 466.6666666666667 Z" stroke-opacity="1" stroke-linecap="round" stroke-miterlimit="10" stroke-dasharray=""/><path fill="none" stroke="rgb(0,0,0)" paint-order="fill stroke markers" d=" M 200 466.6666666666667 L 266.6666666666667 466.6666666666667 L 266.6666666666667 533.3333333333334 L 200 533.3333333333334 L 200 466.6666666666667 Z" stroke-opacity="1" stroke-linecap="round" stroke-miterlimit="10" stroke-dasharray=""/><path fill="none" stroke="rgb(0,0,0)" paint-order="fill stroke markers" d=" M 266.6666666666667 466.6666666666667 L 333.33333333333337 466.6666666666667 L 333.33333333333337 533.3333333333334 L 266.6666666666667 533.3333333333334 L 266.6666666666667 466.6666666666667 Z" stroke-opacity="1" stroke-linecap="round" stroke-miterlimit="10" stroke-dasharray=""/><path fill="none" stroke="rgb(0,0,0)" paint-order="fill stroke markers" d=" M 333.33333333333337 466.6666666666667 L 400.00000000000006 466.6666666666667 L 400.00000000000006 533.3333333333334 L 333.33333333333337 533.3333333333334 L 333.33333333333337 466.6666666666667 Z" stroke-opacity="1" stroke-linecap="round" stroke-miterlimit="10" stroke-dasharray=""/></g></svg>